<svg width="173" height="463" viewBox="0 0 173 463" fill="none" xmlns="http://www.w3.org/2000/svg">
<path d="M462.389 217.542C459.228 166.601 439.285 118.141 405.673 79.7322C372.062 41.3232 326.675 15.1282 276.604 5.23871C226.532 -4.65076 174.595 2.32229 128.904 25.0687C83.2144 47.8151 46.3446 85.0538 24.0543 130.968C1.76396 176.882 -4.69164 228.886 5.69588 278.857C16.0834 328.828 42.7291 373.951 81.4707 407.179C120.212 440.406 168.868 459.866 219.838 462.52C270.808 465.173 321.222 450.871 363.204 421.846L280.328 301.971C264.833 312.683 246.227 317.962 227.415 316.982C208.603 316.003 190.646 308.821 176.347 296.557C162.048 284.294 152.214 267.64 148.38 249.197C144.547 230.754 146.929 211.561 155.156 194.615C163.383 177.669 176.99 163.925 193.854 155.53C210.717 147.135 229.885 144.561 248.366 148.211C266.846 151.861 283.597 161.529 296.002 175.705C308.407 189.881 315.768 207.766 316.934 226.567L462.389 217.542Z" fill="#CEFBE3"/>
</svg>
